<svg xmlns="http://www.w3.org/2000/svg" width="74.948" height="87.308" viewBox="0 0 74.948 87.308">
  <path id="Icon_awesome-paint-brush" data-name="Icon awesome-paint-brush" d="M24.449,52.75c-5.873.44-11.2,3.046-14.227,12.329a2.27,2.27,0,0,1-2.136,1.7c-1.626,0-6.654-4.718-8.087-5.857C0,74.966,5.553,87.308,18.737,87.308c11.1,0,18.737-7.464,18.737-20.5,0-.53-.1-1.037-.142-1.557L24.449,52.75ZM67.027,0a8.33,8.33,0,0,0-5.886,2.805C31.219,33.943,28.106,34.674,28.106,43.84a17.987,17.987,0,0,0,1.278,6.6l9.342,9.068A11.689,11.689,0,0,0,42,60.024c9.092,0,14.361-7.754,30.91-43.733a19.707,19.707,0,0,0,2.035-7.842A8.2,8.2,0,0,0,67.027,0Z" transform="translate(0.001)" fill="#696969"/>
</svg>
