<svg xmlns="http://www.w3.org/2000/svg" width="88.5" height="86.288" viewBox="0 0 88.5 86.288">
  <path id="Icon_simple-adobexd" data-name="Icon simple-adobexd" d="M72.828.45H15.672A15.659,15.659,0,0,0,0,16.122V71.066A15.659,15.659,0,0,0,15.672,86.737H72.828A15.659,15.659,0,0,0,88.5,71.066V16.122A15.659,15.659,0,0,0,72.828.45ZM84.776,69.627A13.36,13.36,0,0,1,71.427,83.05H17.073A13.408,13.408,0,0,1,3.687,69.664V17.523A13.408,13.408,0,0,1,17.073,4.137H71.39A13.386,13.386,0,0,1,84.776,17.523Zm-49.781-28.8L45.319,60.667c.184.3.074.59-.221.59H38.682a.724.724,0,0,1-.774-.479c-2.36-4.867-4.757-9.735-7.228-14.971h-.074C28.394,50.747,25.96,55.947,23.6,60.814a.708.708,0,0,1-.664.406H16.852c-.369,0-.406-.3-.221-.516l10.1-19.249-9.772-19.47a.3.3,0,0,1,.221-.516h6.342a.581.581,0,0,1,.664.406c2.323,4.867,4.683,9.882,6.9,14.787h.074c2.139-4.867,4.5-9.919,6.785-14.75.184-.3.295-.479.664-.479h5.937c.3,0,.406.221.221.516Zm12.132,6.011c0-8.592,5.716-15.3,14.787-15.3a16.353,16.353,0,0,1,1.918.074V21.837a.37.37,0,0,1,.369-.369h5.826c.3,0,.369.111.369.295V55.615a26.264,26.264,0,0,0,.184,3.614c0,.221-.074.3-.3.406a21.965,21.965,0,0,1-9.44,2.139C52.842,61.81,47.126,56.869,47.126,46.839Zm16.7-9.44a5.577,5.577,0,0,0-2.139-.369c-4.646,0-7.891,3.577-7.891,9.514,0,6.785,3.319,9.514,7.486,9.514a6.957,6.957,0,0,0,2.544-.406V37.4Z" transform="translate(0 -0.45)" fill="#696969"/>
</svg>
